<?xml version="1.0" encoding="UTF-8"?>
<svg id="Layer_2" data-name="Layer 2" xmlns="http://www.w3.org/2000/svg" viewBox="0 0 52.69 52.69">
  <defs>
    <style>
      .cls-1 {
        fill: #fff;
      }

      .cls-2 {
        fill: #f2582f;
      }
    </style>
  </defs>
  <g id="OBJECTS">
    <g>
      <circle class="cls-2" cx="26.34" cy="26.34" r="26.34" transform="translate(-5.35 45.93) rotate(-76.72)"/>
      <path class="cls-1" d="m11.14,36.94c2.76,1.77,6.04,2.8,9.57,2.8,11.59,0,18.13-9.79,17.74-18.56,1.22-.88,2.28-1.98,3.11-3.23-1.12.5-2.32.83-3.58.98,1.29-.77,2.28-1.99,2.74-3.45-1.21.72-2.54,1.24-3.96,1.52-1.14-1.21-2.76-1.97-4.56-1.97-4.03,0-6.99,3.76-6.08,7.66-5.19-.26-9.78-2.74-12.86-6.52-1.63,2.81-.85,6.47,1.93,8.33-1.02-.03-1.99-.31-2.83-.78-.07,2.89,2,5.59,5,6.2-.88.24-1.84.29-2.82.11.79,2.48,3.1,4.28,5.83,4.33-2.62,2.06-5.93,2.97-9.24,2.58Z"/>
    </g>
  </g>
</svg>