<?xml version="1.0" encoding="UTF-8"?>
<svg id="Layer_2" data-name="Layer 2" xmlns="http://www.w3.org/2000/svg" viewBox="0 0 52.69 52.69">
  <defs>
    <style>
      .cls-1 {
        fill: #fff;
      }

      .cls-2 {
        fill: #f2582f;
      }
    </style>
  </defs>
  <g id="OBJECTS">
    <g>
      <circle class="cls-2" cx="26.34" cy="26.34" r="26.34" transform="translate(-5.35 45.93) rotate(-76.72)"/>
      <g>
        <path class="cls-1" d="m26.18,16.02c3.52,0,3.94.01,5.33.08,1.29.06,1.98.27,2.45.45.62.24,1.05.52,1.52.99.46.46.75.9.99,1.52.18.46.4,1.16.45,2.45.06,1.39.08,1.81.08,5.33s-.01,3.94-.08,5.33c-.06,1.29-.27,1.98-.45,2.45-.24.62-.52,1.05-.99,1.52s-.9.75-1.52.99c-.46.18-1.16.4-2.45.45-1.39.06-1.81.08-5.33.08s-3.94-.01-5.33-.08c-1.28-.06-1.98-.27-2.45-.45-.62-.24-1.05-.52-1.52-.99-.46-.46-.75-.9-.99-1.52-.18-.46-.4-1.16-.45-2.45-.06-1.39-.08-1.81-.08-5.33s.01-3.94.08-5.33c.06-1.29.27-1.98.45-2.45.24-.62.52-1.05.99-1.52.46-.46.9-.75,1.52-.99.46-.18,1.16-.4,2.45-.45,1.39-.06,1.81-.08,5.33-.08m0-2.38c-3.58,0-4.03.02-5.44.08-1.4.06-2.36.29-3.2.61-.87.34-1.6.79-2.34,1.52-.73.73-1.18,1.47-1.52,2.34-.33.84-.55,1.8-.61,3.2-.06,1.41-.08,1.85-.08,5.44s.02,4.03.08,5.44c.06,1.4.29,2.36.61,3.2.34.87.79,1.6,1.52,2.33s1.47,1.18,2.34,1.52c.84.33,1.8.55,3.2.61,1.41.06,1.86.08,5.44.08s4.03-.02,5.44-.08c1.4-.06,2.36-.29,3.2-.61.87-.34,1.6-.79,2.34-1.52.73-.73,1.18-1.47,1.52-2.33.33-.84.55-1.8.61-3.2.06-1.41.08-1.85.08-5.44s-.02-4.03-.08-5.44c-.06-1.4-.29-2.36-.61-3.2-.34-.87-.79-1.6-1.52-2.34-.73-.73-1.47-1.18-2.34-1.52-.84-.33-1.8-.55-3.2-.61-1.41-.06-1.85-.08-5.44-.08"/>
        <path class="cls-1" d="m26.18,20.06c-3.74,0-6.77,3.03-6.77,6.77s3.03,6.77,6.77,6.77,6.77-3.03,6.77-6.77-3.03-6.77-6.77-6.77m0,11.16c-2.43,0-4.39-1.97-4.39-4.39s1.97-4.39,4.39-4.39,4.39,1.97,4.39,4.39-1.97,4.39-4.39,4.39"/>
        <path class="cls-1" d="m34.79,19.79c0,.87-.71,1.58-1.58,1.58s-1.58-.71-1.58-1.58.71-1.58,1.58-1.58,1.58.71,1.58,1.58"/>
      </g>
    </g>
  </g>
</svg>