<?xml version="1.0" encoding="UTF-8"?>
<svg id="Layer_2" data-name="Layer 2" xmlns="http://www.w3.org/2000/svg" viewBox="0 0 52.69 52.69">
  <defs>
    <style>
      .cls-1 {
        fill: #fff;
      }

      .cls-2 {
        fill: #f2582f;
      }
    </style>
  </defs>
  <g id="OBJECTS">
    <g>
      <circle class="cls-2" cx="26.34" cy="26.34" r="26.34" transform="translate(-10.91 26.34) rotate(-45)"/>
      <path class="cls-1" d="m41.97,18.44c-.38-1.41-1.48-2.52-2.88-2.9-2.54-.69-12.74-.69-12.74-.69,0,0-10.2,0-12.74.69-1.4.38-2.51,1.49-2.88,2.9-.68,2.56-.68,7.9-.68,7.9,0,0,0,5.34.68,7.9.38,1.41,1.48,2.52,2.88,2.9,2.54.69,12.74.69,12.74.69,0,0,10.2,0,12.74-.69,1.4-.38,2.51-1.49,2.88-2.9.68-2.56.68-7.9.68-7.9,0,0,0-5.34-.68-7.9Zm-18.96,12.75v-9.7l8.52,4.85-8.52,4.85Z"/>
    </g>
  </g>
</svg>