<?xml version="1.0" encoding="UTF-8"?>
<svg id="Layer_2" data-name="Layer 2" xmlns="http://www.w3.org/2000/svg" viewBox="0 0 1920 1080">
  <defs>
    <style>
      .cls-1 {
        fill: #fff;
      }

      .cls-2 {
        fill: #e8f3ff;
      }
    </style>
  </defs>
  <g id="BACKGROUND">
    <g>
      <rect class="cls-1" width="1920" height="1080"/>
      <path class="cls-2" d="m1920,0v485.77c-6.78-4.12-13-9.17-18.41-15.14-26.8-29.57-29.38-73.3-28.52-113.2.87-39.89,3.11-82.43-17.22-116.77-16.39-27.66-45.1-45.62-65.26-70.67-22.94-28.5-33.98-66.29-29.98-102.65,2.98-27.1,12.51-49.55,26.51-67.34h132.88Z"/>
      <path class="cls-2" d="m536.48,1080H0v-192.29c14.55.22,29.68,3.75,44.59,10.89,39.88,19.1,45.36,66.55,76.43,94.15,28.86,25.64,72.85,25.16,109.95,14.47,37.09-10.69,71.57-29.92,109.4-37.62,59.2-12.05,124.8,7.69,164.67,53.08,14.5,16.5,25.13,36.27,31.44,57.32Z"/>
    </g>
  </g>
</svg>