<?xml version="1.0" encoding="UTF-8"?>
<svg xmlns="http://www.w3.org/2000/svg" viewBox="0 0 1040.54 720.55">
  <defs>
    <style>
      .cls-1 {
        fill: #e5ae13;
      }

      .cls-2 {
        fill: #f4f4f4;
      }

      .cls-3 {
        fill: #fff;
      }

      .cls-4 {
        stroke-dasharray: 0 0 4.32 4.32;
      }

      .cls-4, .cls-5 {
        stroke: #ffaf30;
      }

      .cls-4, .cls-5, .cls-6, .cls-7, .cls-8, .cls-9 {
        fill: none;
        stroke-miterlimit: 10;
      }

      .cls-10 {
        fill: #d8d8d8;
      }

      .cls-11, .cls-12, .cls-13 {
        opacity: .5;
      }

      .cls-14 {
        fill: #e8d6bf;
      }

      .cls-15 {
        isolation: isolate;
      }

      .cls-16 {
        fill: #0aad60;
      }

      .cls-17 {
        fill: #f2582f;
      }

      .cls-18 {
        fill: #fffaf3;
      }

      .cls-19 {
        fill: #b7bec0;
      }

      .cls-12, .cls-20, .cls-21 {
        mix-blend-mode: soft-light;
      }

      .cls-22 {
        fill: #cfcfd3;
      }

      .cls-20 {
        opacity: .3;
      }

      .cls-23 {
        fill: #ffaf30;
      }

      .cls-24, .cls-13 {
        fill: #e8f3ff;
      }

      .cls-6 {
        stroke-width: .68px;
      }

      .cls-6, .cls-7, .cls-8, .cls-9 {
        stroke: #f2582f;
      }

      .cls-25 {
        fill: #fff3e3;
      }

      .cls-21 {
        opacity: .8;
      }

      .cls-26 {
        fill: #f9f9f9;
      }

      .cls-7 {
        stroke-width: 1.03px;
      }

      .cls-27 {
        fill: #dadae0;
      }

      .cls-28 {
        fill: #464668;
      }

      .cls-29 {
        fill: #ea9918;
      }

      .cls-8 {
        stroke-width: 1.08px;
      }

      .cls-30 {
        fill: #bcbcbc;
      }

      .cls-31 {
        fill: #ff6a4d;
      }

      .cls-32 {
        fill: #ffbb4d;
      }

      .cls-33 {
        fill: #cdd5d7;
      }

      .cls-34 {
        fill: #eddecc;
      }

      .cls-9 {
        stroke-width: .86px;
      }

      .cls-35 {
        fill: #f2f2f2;
      }
    </style>
  </defs>
  <g class="cls-15">
    <g id="Layer_2" data-name="Layer 2">
      <g id="OBJECTS">
        <g>
          <g>
            <g>
              <polygon class="cls-29" points="798.83 55.86 788.42 99.1 659.87 0 798.83 55.86"/>
              <polygon class="cls-23" points="841.02 38.78 798.83 55.86 659.87 0 841.02 38.78"/>
              <polygon class="cls-23" points="784.06 61.13 659.87 0 739.62 79.23 784.06 61.13"/>
              <polygon class="cls-32" points="788.42 99.1 784.06 61.13 754.62 73.14 788.42 99.1"/>
            </g>
            <g>
              <path class="cls-5" d="m797.28,104.16c.55.46,1.1.93,1.65,1.39"/>
              <path class="cls-4" d="m802.2,108.36c26.3,22.76,50.26,48.34,78.58,68.52,30.08,21.43,66.94,36.68,103.46,31.18,12.92-1.95,26.11-6.94,34.16-17.24,13.14-16.83,6.02-45.08-13.28-54.22-19.3-9.14-45.23,2.63-51.66,22.99-2.29,7.27-2.38,15.07-1.55,22.64,1.88,17.11,8.44,33.67,18.78,47.43,10.68,14.22,25.14,25.31,35.52,39.75,15.91,22.14,20.87,50.06,25.41,76.94,4.49,26.6,9,53.43,8.36,80.37"/>
              <path class="cls-5" d="m1039.91,428.89c-.02.72-.05,1.44-.08,2.15"/>
            </g>
          </g>
          <path class="cls-24" d="m991.96,397.95s-41.37-266.99-302.12-281.88c-242.89-13.87-486.59,69.38-605.04,233.91C-3.22,472.24-58.67,739.35,203.31,709.96c261.98-29.39,427.27-37.68,555.14,2.33,127.87,40.01,283.16-65.54,233.51-314.34Z"/>
          <g>
            <g>
              <path class="cls-27" d="m619.06,576.68h-135.22s5.01,121.45-58.85,121.45h252.91c-63.85,0-58.85-121.45-58.85-121.45Z"/>
              <path class="cls-20" d="m483.74,592.96s77.15,36.58,139.51,38.11c0,0-7.75-45.63-2.33-71.09l-137.19,32.97Z"/>
              <path class="cls-27" d="m848.19,183.07v391.58c0,10.1-8.21,18.31-18.31,18.31H273.01c-10.1,0-18.29-8.19-18.29-18.29V183.05c0-10.1,8.19-18.29,18.29-18.29h556.87c10.1,0,18.31,8.21,18.31,18.31Z"/>
              <path class="cls-28" d="m848.19,183.07v342.28H254.72V183.05c0-10.1,8.19-18.29,18.29-18.29h556.87c10.1,0,18.31,8.21,18.31,18.31Z"/>
              <rect class="cls-24" x="276.26" y="185.46" width="550.39" height="322.64"/>
              <path class="cls-22" d="m424.66,685.61h257.67c5.08,0,9.21,4.12,9.21,9.21v3.32h-276.08v-3.32c0-5.08,4.12-9.21,9.21-9.21Z"/>
              <circle class="cls-26" cx="553.5" cy="559.98" r="16.9"/>
            </g>
            <g>
              <polygon class="cls-3" points="550.94 311.41 517.64 452.17 584.24 452.17 550.94 311.41"/>
              <g>
                <path class="cls-3" d="m338.77,508.12c0,.22,0,.45-.02.67h-62.5v-39.64c5.77-2.84,12.25-4.43,19.11-4.43,1.72,0,3.41.1,5.07.3,21.59,2.49,38.34,20.83,38.34,43.1Z"/>
                <path class="cls-3" d="m409.56,488.59c0,7.11-1.3,13.92-3.68,20.2h-106.83c-2.38-6.27-3.68-13.09-3.68-20.2,0-8.4,1.82-16.38,5.07-23.58,8.99-19.76,28.9-33.52,52.02-33.52,7.98,0,15.56,1.64,22.44,4.58,20.38,8.72,34.65,28.95,34.65,52.51Z"/>
                <path class="cls-3" d="m477.44,470.65c0,14.66-5.52,28.03-14.61,38.14h-84.95c-9.1-10.11-14.63-23.48-14.63-38.14,0-12.99,4.33-24.98,11.65-34.57,10.44-13.69,26.91-22.52,45.45-22.52s34.86,8.75,45.28,22.32c7.41,9.62,11.81,21.69,11.81,34.77Z"/>
                <path class="cls-3" d="m572.79,483.15c0,9.12-1.91,17.79-5.34,25.64h-117.33c-3.43-7.85-5.34-16.52-5.34-25.64,0-18.72,8.03-35.56,20.85-47.27,11.4-10.39,26.54-16.73,43.16-16.73,35.34,0,64,28.66,64,64Z"/>
              </g>
              <g>
                <path class="cls-3" d="m764.13,508.12c0,.22,0,.45.02.67h62.5v-39.64c-5.77-2.84-12.25-4.43-19.11-4.43-1.72,0-3.41.1-5.07.3-21.59,2.49-38.34,20.83-38.34,43.1Z"/>
                <path class="cls-3" d="m693.35,488.59c0,7.11,1.3,13.92,3.68,20.2h106.83c2.38-6.27,3.68-13.09,3.68-20.2,0-8.4-1.82-16.38-5.07-23.58-8.99-19.76-28.9-33.52-52.02-33.52-7.98,0-15.56,1.64-22.44,4.58-20.38,8.72-34.65,28.95-34.65,52.51Z"/>
                <path class="cls-3" d="m625.46,470.65c0,14.66,5.52,28.03,14.61,38.14h84.95c9.1-10.11,14.63-23.48,14.63-38.14,0-12.99-4.33-24.98-11.65-34.57-10.44-13.69-26.91-22.52-45.45-22.52s-34.86,8.75-45.28,22.32c-7.41,9.62-11.81,21.69-11.81,34.77Z"/>
                <path class="cls-3" d="m530.12,483.15c0,9.12,1.91,17.79,5.34,25.64h117.33c3.43-7.85,5.34-16.52,5.34-25.64,0-18.72-8.03-35.56-20.85-47.27-11.4-10.39-26.54-16.73-43.16-16.73-35.34,0-64,28.66-64,64Z"/>
              </g>
            </g>
            <g>
              <g class="cls-12">
                <path class="cls-12" d="m629.53,267.08c-1.16-.52-2.36-.99-3.58-1.43.52-4.81.91-9.53,1.18-14.16,0-.08,0-.16.01-.25.07-1.19.13-2.36.18-3.54,0-.18.02-.37.02-.55.05-1.09.08-2.17.12-3.25,0-.2.01-.39.02-.59.03-1.09.05-2.18.07-3.27,0-.16,0-.31,0-.47.02-1.2.03-2.39.03-3.58,0-.03,0-.05,0-.08,0-3.76-.08-7.45-.24-11.08,0-.06,0-.12,0-.18-.05-1.11-.11-2.21-.17-3.31,0-.16-.02-.32-.03-.48-.06-1.01-.13-2.01-.2-3.01-.01-.18-.03-.36-.04-.54-.07-1-.15-2-.24-2.99-.01-.15-.03-.3-.04-.45-.1-1.09-.2-2.18-.31-3.25,0-.03,0-.06,0-.1-.35-3.45-.77-6.84-1.25-10.16,0-.04-.01-.08-.02-.11-.15-1.03-.31-2.06-.47-3.08-.02-.14-.04-.27-.07-.41-.15-.93-.31-1.86-.47-2.79-.03-.16-.05-.31-.08-.47-.16-.92-.33-1.84-.5-2.76-.02-.13-.05-.25-.07-.38-.19-1-.38-1.99-.58-2.97,0-.03-.01-.06-.02-.1-.85-4.18-1.8-8.24-2.84-12.19-.02-.09-.05-.18-.07-.27-.23-.88-.47-1.76-.71-2.63-.03-.12-.06-.23-.1-.35-.24-.86-.49-1.72-.73-2.57-.03-.09-.06-.19-.08-.28-1.4-4.79-2.93-9.4-4.56-13.83-.01-.03-.03-.07-.04-.1-.31-.84-.62-1.68-.94-2.51-.02-.06-.05-.12-.07-.18-.32-.83-.64-1.65-.96-2.46-.02-.04-.03-.08-.05-.11-.71-1.8-1.44-3.57-2.19-5.31-.07-.15-.13-.3-.2-.45-2.77-6.41-5.72-12.41-8.77-17.99-.02-.03-.03-.06-.05-.09-5.61-10.25-11.54-19.09-17.23-26.54-14.53-19.03-27.45-29.01-29.24-30.35v-.15s0,0,0,0h0s-.04.02-.11.07c-.06-.05-.11-.08-.11-.08v.15c-1.29.96-8.4,6.45-17.74,16.61-.02.02-.04.04-.06.06-.5.54-1,1.1-1.51,1.67-.06.06-.11.13-.17.19-.48.54-.97,1.09-1.46,1.66-.09.1-.17.2-.26.3-.47.54-.95,1.1-1.43,1.66-.11.13-.22.26-.33.39-.46.55-.93,1.11-1.4,1.68-.13.16-.26.31-.39.47-.46.56-.92,1.12-1.38,1.7-.14.18-.29.36-.43.54-.45.57-.91,1.15-1.37,1.74-.15.2-.31.4-.46.6-.45.59-.91,1.18-1.37,1.78-.16.21-.32.43-.48.64-.46.61-.91,1.22-1.37,1.85-.16.22-.32.44-.48.66-.46.64-.93,1.28-1.39,1.93-.16.22-.31.45-.47.67-.47.67-.94,1.34-1.41,2.02-.15.21-.29.43-.44.65-.48.71-.96,1.42-1.44,2.14-.13.19-.25.38-.38.57-.5.76-1.01,1.53-1.51,2.32-.09.14-.18.28-.26.42-.54.85-1.08,1.71-1.62,2.58-.02.03-.03.06-.05.08-1.83,2.97-3.64,6.07-5.42,9.32h0s0,0,0,0c-.81,1.48-1.61,2.98-2.39,4.51-.81,1.55-1.6,3.14-2.37,4.75-.73,1.48-1.44,2.99-2.13,4.52-.72,1.55-1.41,3.14-2.1,4.74-13.1,30.58-21.9,70.67-16.56,120.71-.71.24-1.42.49-2.11.75-62.73,24.2-37.37,142.17-37.37,142.17,11.88-38.88,41.43-49.78,55.21-52.79,3.11-.68,5.42-.96,6.54-1.06,0,.01,0,.02.01.04h0c.07.17.14.35.2.52.68,1.77,1.39,3.56,2.1,5.35.32.8.65,1.61.97,2.41.58,1.43,1.18,2.87,1.78,4.31.26.62.51,1.23.77,1.85.71,1.68,1.44,3.37,2.18,5.07,0,0,0,0,0,0,.18.4.36.81.54,1.22.15.33.29.67.44,1,.98,2.22,1.98,4.45,3.02,6.68h0s0,0,0,0h38.34l1.4,30.68,1.28-30.68h34.72c4.46-9.68,8.44-19.12,11.98-28.34,1.37.17,3.44.48,6.01,1.07,14.01,3.19,42.91,14.32,54.62,52.66,0,0,24.65-114.68-34.79-141.09Z"/>
                <polygon class="cls-12" points="555.72 413.56 555.71 413.45 555.71 413.56 555.72 413.56"/>
              </g>
              <g>
                <g>
                  <g>
                    <path class="cls-17" d="m659.47,403.86c-11.72-38.35-40.61-49.47-54.62-52.66-4.83-1.1-7.89-1.25-7.89-1.25v-92.57c10.82,0,19.99,1.94,27.73,5.39,59.44,26.41,34.79,141.09,34.79,141.09Z"/>
                    <path class="cls-12" d="m624.4,282.64c-1.19,6.39-3.83,12.42-5.88,18.6-5.43,16.4-6.85,34.31-13.68,49.97-4.83-1.1-7.89-1.25-7.89-1.25v-92.57c10.82,0,19.99,1.94,27.73,5.39,1.15,7.1.66,14.77-.28,19.87Z"/>
                  </g>
                  <g>
                    <path class="cls-17" d="m499.87,257.38v92.57s-2.81.14-7.31,1.12c-13.78,3.01-43.33,13.91-55.21,52.79,0,0-25.36-117.97,37.37-142.17,7.17-2.77,15.49-4.31,25.14-4.31Z"/>
                    <path class="cls-12" d="m499.87,257.38v92.57s-2.81.14-7.31,1.12c-.55-1.96-1.01-3.96-1.5-5.93-3.53-14.53-8.1-28.79-11.53-43.35-1.7-7.18-3.12-14.45-3.99-21.79-.72-6.11-.36-12.24-.81-18.32,7.17-2.77,15.49-4.31,25.14-4.31Z"/>
                  </g>
                </g>
                <path class="cls-35" d="m598.87,350.05c-3.55,9.24-7.54,18.7-12.01,28.42h-75.73c-1.38-2.99-2.72-5.96-4-8.9-2.89-6.62-5.55-13.12-8.01-19.51-35.82-93.44-25.83-162.86-5.71-209.83.69-1.61,1.38-3.19,2.1-4.74.69-1.53,1.4-3.04,2.13-4.52.78-1.62,1.56-3.2,2.37-4.75.79-1.53,1.58-3.03,2.39-4.51,19.13-34.96,42.05-53.49,46.07-56.57.17-.13.31-.24.41-.31v-.15s.04.02.11.08c.06-.05.11-.08.11-.08v.15c2.48,1.85,26.53,20.44,46.47,56.89.81,1.48,1.61,2.98,2.39,4.51.81,1.55,1.61,3.14,2.38,4.75.72,1.48,1.43,2.99,2.12,4.52.72,1.55,1.42,3.14,2.11,4.74,20.12,46.96,30.1,116.37-5.72,209.83Z"/>
                <path class="cls-17" d="m595.58,121.7h-93.17c19.95-36.45,44-55.03,46.48-56.89v-.15s.04.02.11.08c.06-.05.11-.08.11-.08v.15c2.48,1.85,26.53,20.44,46.47,56.89Z"/>
                <path class="cls-28" d="m598.87,350.04c-3.55,9.24-7.54,18.7-12.01,28.42h-75.73c-4.47-9.7-8.46-19.18-12.01-28.42h99.75Z"/>
                <g>
                  <circle class="cls-17" cx="548.99" cy="216" r="33.94" transform="translate(-16.3 384.79) rotate(-38.1)"/>
                  <path class="cls-24" d="m578.56,216c0,14.81-10.94,27.11-25.17,29.23-1.43.23-2.9.33-4.39.33-2.08,0-4.12-.22-6.08-.64-.87-.17-1.72-.4-2.57-.65-5.55-1.7-10.41-5-14.05-9.36-4.29-5.13-6.88-11.73-6.88-18.92,0-15.78,12.43-28.71,28-29.53.52-.03,1.05-.04,1.57-.04,5.4,0,10.48,1.46,14.83,4.01.77.43,1.51.92,2.22,1.43,2.87,2.03,5.37,4.55,7.34,7.46,3.26,4.74,5.16,10.49,5.16,16.67Z"/>
                  <g class="cls-11">
                    <path class="cls-3" d="m563.83,190.44l-23.48,53.84c-5.55-1.7-10.41-5-14.05-9.36l21.12-48.45c.52-.03,1.05-.04,1.57-.04,5.4,0,10.48,1.46,14.83,4.01Z"/>
                    <path class="cls-3" d="m573.39,199.34l-20.01,45.89c-1.43.23-2.9.33-4.39.33-2.08,0-4.12-.22-6.08-.64l23.13-53.05c2.87,2.03,5.37,4.55,7.34,7.46Z"/>
                  </g>
                </g>
                <path class="cls-17" d="m600.36,130.96h-102.71c.78-1.62,1.56-3.2,2.37-4.75h97.96c.81,1.55,1.61,3.14,2.38,4.75Z"/>
                <path class="cls-17" d="m604.59,140.22h-111.19c.69-1.61,1.38-3.19,2.1-4.74h106.97c.72,1.55,1.42,3.14,2.11,4.74Z"/>
                <path class="cls-17" d="m550.86,409.25h0l-5.79-127.14c-.14-3.16,2.38-5.8,5.54-5.8h0c3.15,0,5.67,2.63,5.54,5.78l-5.3,127.16Z"/>
                <g>
                  <circle class="cls-10" cx="502.14" cy="152.3" r="4.72"/>
                  <path class="cls-30" d="m502.14,154.86c-1.41,0-2.56-1.15-2.56-2.56s1.15-2.56,2.56-2.56,2.56,1.15,2.56,2.56-1.15,2.56-2.56,2.56Z"/>
                </g>
                <g>
                  <circle class="cls-10" cx="520.79" cy="152.3" r="4.72"/>
                  <path class="cls-30" d="m520.79,154.86c-1.41,0-2.56-1.15-2.56-2.56s1.15-2.56,2.56-2.56,2.56,1.15,2.56,2.56-1.15,2.56-2.56,2.56Z"/>
                </g>
                <g>
                  <circle class="cls-10" cx="539.44" cy="152.3" r="4.72"/>
                  <path class="cls-30" d="m539.44,154.86c-1.41,0-2.56-1.15-2.56-2.56s1.15-2.56,2.56-2.56,2.56,1.15,2.56,2.56-1.15,2.56-2.56,2.56Z"/>
                </g>
                <g>
                  <circle class="cls-10" cx="558.1" cy="152.3" r="4.72"/>
                  <path class="cls-30" d="m558.09,154.86c-1.41,0-2.56-1.15-2.56-2.56s1.15-2.56,2.56-2.56,2.56,1.15,2.56,2.56-1.15,2.56-2.56,2.56Z"/>
                </g>
                <g>
                  <path class="cls-10" d="m581.47,152.3c0,2.61-2.11,4.72-4.72,4.72s-4.72-2.11-4.72-4.72,2.11-4.72,4.72-4.72,4.72,2.11,4.72,4.72Z"/>
                  <path class="cls-30" d="m576.75,154.86c-1.41,0-2.56-1.15-2.56-2.56s1.15-2.56,2.56-2.56,2.56,1.15,2.56,2.56-1.15,2.56-2.56,2.56Z"/>
                </g>
                <g>
                  <circle class="cls-10" cx="595.4" cy="152.3" r="4.72"/>
                  <path class="cls-30" d="m595.4,154.86c-1.41,0-2.56-1.15-2.56-2.56s1.15-2.56,2.56-2.56,2.56,1.15,2.56,2.56-1.15,2.56-2.56,2.56Z"/>
                </g>
                <path class="cls-12" d="m598.87,350.04c-3.55,9.24-7.54,18.7-12.01,28.42h-75.73c-1.38-2.99-2.72-5.96-4-8.9,8.95-1.13,18.08-1,27.06-2.02,11.07-1.25,22.56-4.64,30.03-12.9,5.76-6.38,8.44-14.89,10.97-23.11,11.48-37.4,23.05-75.27,25.02-114.34.73-14.54.09-29.34-4.22-43.26-6.05-19.58-18.91-36.2-28.57-54.28-8.18-15.31-13.81-31.61-17.51-48.54-.41-1.88-1.06-3.93-1.44-5.98.17-.13.31-.24.41-.31v-.15s.04.02.11.08c.06-.05.11-.08.11-.08v.15c2.48,1.85,26.53,20.44,46.47,56.89,25.41,46.4,44.16,121.73,3.29,228.35Z"/>
              </g>
            </g>
          </g>
          <g>
            <polygon class="cls-20" points="359.72 500.02 348.28 476.48 348.28 476.48 316.69 411.51 293.46 402.32 280.27 375.2 255.42 387.29 220.18 373.35 208.47 410.11 182.06 422.95 195.54 450.69 188.11 474.01 188.11 474.01 231.14 562.53 359.72 500.02"/>
            <g>
              <rect class="cls-1" x="180.54" y="437.1" width="142.97" height="72.25" transform="translate(-181.53 157.81) rotate(-25.93)"/>
              <polygon class="cls-23" points="171.94 471.99 204.01 371.34 300.52 409.49 171.94 471.99"/>
              <g>
                <rect class="cls-25" x="189.07" y="390.46" width="109.2" height="131.19" transform="translate(-174.86 152.43) rotate(-25.93)"/>
                <g>
                  <rect class="cls-34" x="172.75" y="404.81" width="94.16" height="4.39" transform="translate(-155.82 137.07) rotate(-25.93)"/>
                  <rect class="cls-34" x="176.63" y="412.79" width="94.16" height="4.39" transform="translate(-158.92 139.57) rotate(-25.93)"/>
                  <rect class="cls-34" x="180.51" y="420.77" width="94.16" height="4.39" transform="translate(-162.02 142.07) rotate(-25.93)"/>
                  <rect class="cls-34" x="184.39" y="428.75" width="94.16" height="4.39" transform="translate(-165.12 144.57) rotate(-25.93)"/>
                  <rect class="cls-34" x="188.27" y="436.74" width="94.16" height="4.39" transform="translate(-168.22 147.07) rotate(-25.93)"/>
                  <rect class="cls-34" x="204.16" y="469.43" width="94.16" height="4.39" transform="translate(-180.91 157.31) rotate(-25.93)"/>
                  <rect class="cls-34" x="208.41" y="478.17" width="94.16" height="4.39" transform="translate(-184.31 160.05) rotate(-25.93)"/>
                  <rect class="cls-34" x="196.24" y="453.14" width="94.16" height="4.39" transform="translate(-174.59 152.21) rotate(-25.93)"/>
                  <rect class="cls-34" x="201.72" y="467.81" width="64.57" height="4.39" transform="translate(-181.94 149.61) rotate(-25.93)"/>
                  <rect class="cls-34" x="193.43" y="449.79" width="72.98" height="4.39" transform="translate(-174.47 146.01) rotate(-25.93)"/>
                </g>
              </g>
              <polygon class="cls-23" points="171.94 471.99 214.97 560.51 343.55 498 300.52 409.49 261.72 493.17 171.94 471.99"/>
              <polygon class="cls-23" points="214.97 560.51 254.22 477.74 343.55 498 214.97 560.51"/>
              <polygon class="cls-12" points="214.97 560.51 245.2 489.27 248.41 490.03 214.97 560.51"/>
              <polygon class="cls-12" points="343.55 498 267.47 480.75 268.86 477.77 343.55 498"/>
            </g>
          </g>
          <g>
            <path class="cls-20" d="m551.48,514.82c0-38.75-31.41-70.16-70.16-70.16v19.75c-1.86.08-3.69.26-5.5.54-24.06,3.73-42.48,24.52-42.48,49.62,0,27.74,22.49,50.22,50.23,50.22,25.65,0,46.83-19.25,49.85-44.1.23-1.92.35-3.88.36-5.87h17.7Z"/>
            <g>
              <path class="cls-29" d="m528.68,507.85c0,2.08-.13,4.12-.37,6.12-3.03,24.85-24.2,44.1-49.85,44.1-27.74,0-50.23-22.48-50.23-50.22,0-25.1,18.42-45.9,42.48-49.62,2.53-.39,5.11-.6,7.75-.6,4.33,0,8.54.55,12.55,1.58,16.44,4.23,29.63,16.58,35.03,32.51t0,.02c1.71,5.05,2.64,10.47,2.64,16.11Z"/>
              <path class="cls-23" d="m478.46,552.96c-24.88,0-45.12-20.24-45.12-45.12,0-10.83,3.9-21.31,10.97-29.49,7.01-8.1,16.66-13.46,27.18-15.09,2.3-.36,4.64-.54,6.97-.54,3.81,0,7.6.48,11.28,1.42,14.79,3.8,26.55,14.72,31.46,29.21l.15.44c1.48,4.51,2.23,9.24,2.23,14.05,0,1.82-.11,3.67-.33,5.52-2.75,22.56-22.01,39.59-44.79,39.59Z"/>
              <path class="cls-12" d="m528.68,507.85c0,2.08-.13,4.12-.37,6.12l-52.11-5.87-5.49-49.88c2.53-.39,5.11-.6,7.75-.6,4.33,0,8.54.55,12.55,1.58,16.99,12.33,27.96,23.48,35.03,32.51t0,.02c1.71,5.05,2.64,10.47,2.64,16.11Z"/>
              <path class="cls-17" d="m546.37,508.1c0-38.75-31.41-70.16-70.16-70.16v70.16h70.16Z"/>
            </g>
          </g>
          <g>
            <path class="cls-21" d="m697.7,561.13c-6.72-16.9-20.68-28.76-36.9-33.44l.12-.79h0s.2-1.37.2-1.37l1.65.24c.83.12,1.6-.46,1.73-1.29l1.05-7.15c.12-.83-.45-1.61-1.29-1.73l-10.99-1.61c-.83-.12-1.6.45-1.73,1.29l-1.05,7.14c-.12.84.46,1.61,1.29,1.73l1.65.24-.24,1.64c-7.51-1.08-15.32-.67-22.98,1.44l-.65-1.63h0l-.82-2.08,2.49-.99c1.26-.5,1.88-1.92,1.38-3.18l-4.29-10.78c-.5-1.26-1.92-1.87-3.18-1.37l-16.58,6.58c-1.25.5-1.86,1.93-1.37,3.19l4.29,10.78c.49,1.26,1.92,1.87,3.17,1.37l2.49-.99,1.47,3.71c-7.18,3.81-13.25,9.01-18.01,15.12l-.44-.35h0s-1.09-.86-1.09-.86l1.03-1.31c.52-.66.41-1.62-.25-2.15l-5.66-4.48c-.67-.52-1.62-.41-2.14.25l-6.89,8.71c-.52.66-.41,1.62.25,2.14l5.67,4.48c.66.52,1.62.41,2.14-.25l1.03-1.3,2,1.58c-8.36,14.46-10.27,32.47-3.62,49.2,11.53,29.02,44.4,43.2,73.42,31.67,29.02-11.53,43.2-44.41,31.67-73.43Z"/>
            <g>
              <rect class="cls-27" x="614.16" y="517.66" width="12.49" height="13.38" transform="translate(-149.78 266.15) rotate(-21.67)"/>
              <rect class="cls-19" x="612.84" y="517.91" width="12.49" height="6.24" transform="translate(-148.65 265.44) rotate(-21.67)"/>
              <path class="cls-23" d="m629.08,515.38c.49,1.26-.12,2.68-1.38,3.18l-16.58,6.59c-1.25.5-2.68-.11-3.17-1.37l-4.29-10.78c-.49-1.26.11-2.69,1.37-3.19l16.58-6.58c1.26-.5,2.69.11,3.18,1.37l4.29,10.78Z"/>
              <g>
                <rect class="cls-27" x="590.55" y="541.7" width="7.78" height="8.33" transform="translate(-202.47 673.4) rotate(-51.65)"/>
                <polygon class="cls-19" points="596.63 542.64 591.8 548.74 588.75 546.33 593.58 540.23 596.63 542.64"/>
                <path class="cls-23" d="m596.32,538.33c.66.52.77,1.48.25,2.15l-6.89,8.71c-.52.66-1.49.77-2.14.25l-5.67-4.48c-.66-.52-.77-1.48-.25-2.14l6.89-8.71c.52-.66,1.48-.77,2.14-.25l5.66,4.48Z"/>
              </g>
              <g>
                <rect class="cls-27" x="649.34" y="518.51" width="8.33" height="7.77" transform="translate(41.8 1093.17) rotate(-81.66)"/>
                <rect class="cls-19" x="651.89" y="516.31" width="3.89" height="7.77" transform="translate(44.4 1091.76) rotate(-81.67)"/>
                <path class="cls-23" d="m646.97,518.21c-.12.84.46,1.61,1.29,1.73l10.99,1.61c.83.12,1.6-.46,1.73-1.29l1.05-7.15c.12-.83-.45-1.61-1.29-1.73l-10.99-1.61c-.83-.12-1.6.45-1.73,1.29l-1.05,7.14Z"/>
              </g>
              <path class="cls-23" d="m694.18,556.9c11.53,29.02-2.64,61.89-31.67,73.43-29.02,11.53-61.89-2.65-73.42-31.67-11.53-29.02,2.65-61.89,31.67-73.42,29.02-11.53,61.89,2.65,73.42,31.66Z"/>
              <path class="cls-25" d="m659.3,622.25c-24.56,9.75-52.37-2.24-62.13-26.8-4.9-12.32-4.31-25.47.59-36.74,4.86-11.19,13.97-20.53,26.21-25.39,11.65-4.63,24.05-4.36,34.89-.17.17.07.32.13.49.19,11.78,4.7,21.69,14.05,26.75,26.77,9.76,24.56-2.25,52.37-26.8,62.13Z"/>
              <path class="cls-14" d="m659.35,533.35l-17.71,44.43-43.87-19.07c4.86-11.19,13.97-20.53,26.21-25.39,11.65-4.63,24.05-4.36,34.89-.17.17.07.32.13.49.19Z"/>
              <g>
                <rect class="cls-28" x="626.76" y="538.43" width="1.03" height="5.82" transform="translate(-155.55 269.85) rotate(-21.67)"/>
                <polygon class="cls-28" points="623.13 546.59 622.26 547.13 619.2 542.17 620.08 541.64 623.13 546.59"/>
                <polygon class="cls-28" points="617.99 550.28 617.23 550.96 613.36 546.61 614.13 545.93 617.99 550.28"/>
                <rect class="cls-28" x="610.47" y="550.49" width="1.02" height="5.82" transform="translate(-202.12 689.11) rotate(-51.64)"/>
                <rect class="cls-28" x="606.7" y="556.18" width="1.03" height="5.82" transform="translate(-172.88 828.81) rotate(-61.71)"/>
                <rect class="cls-28" x="603.97" y="562.45" width="1.03" height="5.82" transform="translate(-122.18 961.57) rotate(-71.69)"/>
                <polygon class="cls-28" points="605.84 571.91 605.7 572.93 599.94 572.09 600.09 571.07 605.84 571.91"/>
                <rect class="cls-28" x="599.57" y="578.3" width="5.81" height="1.02" transform="translate(-16.8 18.01) rotate(-1.69)"/>
                <rect class="cls-28" x="600.34" y="585.09" width="5.82" height="1.03" transform="translate(-104.94 132.49) rotate(-11.54)"/>
                <rect class="cls-28" x="602.28" y="591.63" width="5.81" height="1.02" transform="translate(-175.88 265.31) rotate(-21.67)"/>
                <polygon class="cls-28" points="610.44 596.29 610.98 597.17 606.04 600.22 605.5 599.35 610.44 596.29"/>
                <rect class="cls-28" x="609.39" y="603.23" width="5.82" height="1.03" transform="translate(-246.54 561.16) rotate(-41.76)"/>
                <rect class="cls-28" x="614.35" y="607.93" width="5.81" height="1.03" transform="translate(-242.28 719.82) rotate(-51.97)"/>
                <polygon class="cls-28" points="623.88 609.41 624.78 609.9 622.02 615.02 621.11 614.53 623.88 609.41"/>
                <polygon class="cls-28" points="629.64 612.02 630.61 612.33 628.79 617.86 627.81 617.53 629.64 612.02"/>
                <rect class="cls-28" x="632.94" y="616.01" width="5.82" height="1.03" transform="translate(-66.07 1156.64) rotate(-81.69)"/>
                <rect class="cls-28" x="642.15" y="614.04" width="1.03" height="5.82" transform="translate(-18.58 19.96) rotate(-1.75)"/>
                <polygon class="cls-28" points="648.36 613.42 649.37 613.21 650.55 618.92 649.53 619.12 648.36 613.42"/>
                <rect class="cls-28" x="655.49" y="611.32" width="1.03" height="5.82" transform="translate(-180.44 285.63) rotate(-21.67)"/>
                <rect class="cls-28" x="661.6" y="608.27" width="1.03" height="5.81" transform="translate(-221.93 436.82) rotate(-31.55)"/>
                <polygon class="cls-28" points="665.28 605.29 666.05 604.6 669.91 608.95 669.15 609.64 665.28 605.29"/>
                <rect class="cls-28" x="671.79" y="599.26" width="1.02" height="5.82" transform="translate(-216.93 756.66) rotate(-51.71)"/>
                <rect class="cls-28" x="675.56" y="593.56" width="1.03" height="5.82" transform="translate(-167.86 913.69) rotate(-62.02)"/>
                <rect class="cls-28" x="678.28" y="587.3" width="1.02" height="5.81" transform="translate(-94.78 1049.22) rotate(-71.69)"/>
                <polygon class="cls-28" points="677.43 583.65 677.58 582.64 683.34 583.48 683.19 584.5 677.43 583.65"/>
                <polygon class="cls-28" points="677.91 577.35 677.88 576.33 683.69 576.16 683.72 577.19 677.91 577.35"/>
                <polygon class="cls-28" points="677.28 571.06 677.07 570.05 682.77 568.88 682.97 569.89 677.28 571.06"/>
                <rect class="cls-28" x="675.17" y="562.9" width="5.82" height="1.03" transform="translate(-160.14 290.24) rotate(-21.67)"/>
                <rect class="cls-28" x="672.13" y="556.8" width="5.81" height="1.03" transform="translate(-192.03 437.04) rotate(-31.65)"/>
                <rect class="cls-28" x="668.07" y="551.31" width="5.82" height="1.03" transform="translate(-196.98 588.93) rotate(-41.88)"/>
                <polygon class="cls-28" points="664.62 549.72 663.81 549.08 667.42 544.52 668.23 545.16 664.62 549.72"/>
                <polygon class="cls-28" points="659.4 546.16 658.5 545.67 661.26 540.55 662.16 541.04 659.4 546.16"/>
                <polygon class="cls-28" points="653.63 543.56 652.65 543.23 654.49 537.71 655.46 538.04 653.63 543.56"/>
                <polygon class="cls-28" points="647.51 541.99 646.5 541.85 647.34 536.08 648.35 536.24 647.51 541.99"/>
                <polygon class="cls-28" points="641.21 541.51 640.18 541.54 640.01 535.73 641.04 535.7 641.21 541.51"/>
                <polygon class="cls-28" points="634.91 542.14 633.91 542.35 632.74 536.65 633.74 536.45 634.91 542.14"/>
              </g>
              <g>
                <path class="cls-28" d="m646.7,575.72c-1.11-2.78-4.26-4.14-7.04-3.04-2.77,1.11-4.14,4.26-3.03,7.04,1.11,2.78,4.25,4.14,7.04,3.04,2.78-1.1,4.14-4.25,3.03-7.03Zm-4.09,4.38c-1.31.52-2.8-.12-3.33-1.43-.52-1.31.12-2.8,1.43-3.32,1.32-.52,2.8.12,3.33,1.43.52,1.32-.12,2.8-1.43,3.32Z"/>
                <polygon class="cls-28" points="654.33 546.27 645.88 575.35 640.49 573.03 654.33 546.27"/>
              </g>
              <path class="cls-33" d="m642.61,580.1c-1.31.52-2.8-.12-3.33-1.43-.52-1.31.12-2.8,1.43-3.32,1.32-.52,2.8.12,3.33,1.43.52,1.32-.12,2.8-1.43,3.32Z"/>
              <path class="cls-21" d="m625.19,536.41c24.03-9.55,51.19,1.75,61.48,25.26-.19-.52-.37-1.04-.57-1.56-9.76-24.55-37.58-36.54-62.13-26.79-24.55,9.76-36.55,37.57-26.79,62.12.21.52.43,1.02.65,1.53-8.66-24.16,3.33-51.02,27.37-60.57Z"/>
            </g>
          </g>
          <g>
            <path class="cls-20" d="m856.96,481.42c-28.09-8.74-57.95,6.94-66.69,35.03-7.91,25.4,4.17,52.25,27.32,63.62l-5.08,16.32-4.77-1.49-23.11,74.24c-.82,2.62-.78,5.3-.04,7.76,1.23,4.07,4.39,7.49,8.76,8.85,6.99,2.18,14.43-1.74,16.6-8.73l23.11-74.24-4.77-1.48,2.32-7.47h0l2.75-8.85c25.52,3.78,50.7-11.47,58.6-36.87,8.74-28.09-6.94-57.95-35.03-66.69Z"/>
            <g>
              <rect class="cls-27" x="809.28" y="576.31" width="16.54" height="32.11" transform="translate(212.98 -216.2) rotate(17.29)"/>
              <path class="cls-28" d="m829.25,599.38l-23.11,74.24c-2.18,6.99-9.61,10.91-16.6,8.73-4.38-1.36-7.54-4.78-8.76-8.85-.74-2.46-.78-5.14.04-7.76l23.11-74.24,25.33,7.88Z"/>
              <path class="cls-12" d="m813.86,576.06s6.8,10.16,12.96,14.38l3.7-11.88s-14.97-3.38-16.65-2.5Z"/>
              <g>
                <path class="cls-23" d="m853.14,478.02c-28.09-8.74-57.95,6.94-66.69,35.03-8.74,28.09,6.94,57.95,35.03,66.69,28.09,8.74,57.95-6.94,66.69-35.03,8.74-28.09-6.94-57.95-35.03-66.69Zm-29.69,95.37c-24.55-7.64-38.3-33.82-30.66-58.37,7.64-24.55,33.82-38.3,58.37-30.66,24.55,7.64,38.3,33.82,30.66,58.37-7.64,24.55-33.82,38.3-58.37,30.66Z"/>
                <path class="cls-13" d="m823.46,573.39c-24.55-7.64-38.3-33.82-30.66-58.37,7.64-24.55,33.82-38.3,58.37-30.66,24.55,7.64,38.3,33.82,30.66,58.37-7.64,24.55-33.82,38.3-58.37,30.66Z"/>
                <path class="cls-12" d="m851.17,484.37c-5.04-1.57-10.15-2.22-15.15-2.08,3.77.2,7.57.87,11.34,2.04,24.55,7.64,38.3,33.82,30.66,58.37-6.07,19.5-23.85,32.18-43.21,32.74,20.8,1.12,40.56-11.92,47.03-32.7,7.64-24.55-6.11-50.73-30.66-58.37Z"/>
              </g>
              <path class="cls-20" d="m829.25,599.38l-23.11,74.24c-2.18,6.99-9.61,10.91-16.6,8.73-4.38-1.36-7.54-4.78-8.76-8.85.41-.09.83-.17,1.24-.23,3.97-.58,8.18-.24,11.88-1.82,6.05-2.59,8.88-9.43,11.03-15.65,4.79-13.91,9.03-28.02,12.7-42.27,1.11-4.36,1.43-12.15,3.74-16.6l7.88,2.45Z"/>
            </g>
          </g>
          <g>
            <path class="cls-12" d="m942.09,199.07l-.08-.27h0s0,0,0,0h0s-21.5-12.91-21.5-12.91l-.17-.1-.55-.33h0s0,0,0,0l-18.69,2.9-10.04,12.65-10.48,13.74-28.53,41.14-56.43,81.36h0s0,0,0,0l-8.31,39.99-1.86,9-1.4,6.75c-.13.6.23,1.11.72,1.3.29.11.63.1.94-.08,0,0,0,0,.01,0h0s0,0,0,0h0s.17-.1.17-.1l11.82-6.81s0,0,0,0l37.32-21.5.17-.09h0s92.6-118.17,92.6-118.17l10.48-13.74,10.04-12.65-6.24-22.08Z"/>
            <g>
              <polygon class="cls-17" points="944.34 210.1 934.59 222.97 923.63 234.36 906.16 252.51 846.25 314.78 830.36 303.58 827.88 303.47 879.59 204.7 886.61 191.28 896.36 178.41 914.99 175.07 915.71 175.48 937.5 187.9 937.59 188.17 944.34 210.1"/>
              <polygon class="cls-27" points="934.59 222.97 924.43 236.95 893.93 268.41 836.5 327.65 820.61 316.47 818.13 316.35 876.45 205.26 886.61 191.28 905.23 187.95 905.96 188.36 927.75 200.77 932.4 215.86 934.59 222.97"/>
              <path class="cls-25" d="m834.57,357.21l-36.98,22.45-7.84,4.76-3.82,2.31-.18.11c-.84.51-1.88-.22-1.7-1.18l.24-1.32.07-.35,2.59-14.15,7.39-40.17s6.29-2.02,14.15-.52c.79.16,1.6.34,2.42.58,5.28,1.48,11.04,4.7,15.91,11.22,1.48,1.98,2.87,4.24,4.16,6.87,1.34,2.73,2.55,5.84,3.59,9.37Z"/>
              <polygon class="cls-23" points="924.43 236.95 834.57 357.21 830.12 348.8 826.34 341.63 810.45 330.44 807.97 330.32 794.34 329.68 876.45 205.26 879.59 204.7 895.08 201.93 895.8 202.34 917.59 214.75 922.61 231.08 923.63 234.36 924.43 236.95"/>
              <polygon class="cls-32" points="895.08 201.92 831.75 298.08 810.91 329.75 810.45 330.44 826.34 341.63 826.81 340.97 917.59 214.75 895.81 202.34 895.08 201.92"/>
              <polygon class="cls-23" points="876.45 205.26 794.34 329.68 807.97 330.32 810.45 330.44 810.91 329.75 831.75 298.08 895.08 201.92 876.45 205.26"/>
              <polygon class="cls-12" points="833.3 357.94 824.84 342.58 809.63 331.99 794.23 331.55 794.34 329.68 810.44 330.44 826.34 341.63 834.57 357.22 833.3 357.94"/>
              <polygon class="cls-2" points="895.08 201.92 905.24 187.95 927.75 200.78 917.59 214.75 895.08 201.92"/>
              <polygon class="cls-31" points="905.24 187.95 914.99 175.07 937.5 187.9 927.75 200.78 905.24 187.95"/>
              <path class="cls-12" d="m944.34,210.1l-9.75,12.88-10.16,13.98-89.86,120.26-4.44-8.41c.29-.32.58-.64.85-.96,2.51-2.82,4.9-5.75,7.25-8.66,18.89-23.34,37.36-47.01,55.7-70.78,4.09-5.3,8.16-10.59,12.23-15.9,5.36-6.96,10.69-13.93,16.04-20.9.13-.18.28-.36.41-.53,3.42-4.46,6.82-8.97,9.24-14.04.18-.39.37-.79.54-1.18,2.77-6.27,3.96-13.08,4.65-19.88.22-2.15.07-5.14.54-7.81l6.75,21.93Z"/>
              <path class="cls-18" d="m826.34,341.63l-36.59,42.79-3.82,2.31-.18.11c-.84.51-1.88-.22-1.7-1.18l.24-1.32.07-.35,26.08-53.56,15.9,11.2Z"/>
              <path class="cls-28" d="m786.96,369.86l-2.9,15.81c-.18.96.87,1.68,1.7,1.18l.18-.11,11.66-7.08c-.94-2.12-2.38-4.43-4.56-6.37-1.59-1.41-3.58-2.64-6.07-3.44Z"/>
              <path class="cls-12" d="m834.57,357.21l-36.98,22.45-11.66,7.08-.18.11c-.84.51-1.88-.22-1.7-1.18l.24-1.32c3.5-5.31,7.72-10.03,13.06-13.45,5.07-3.25,10.88-5.16,16.13-8.1,6.37-3.58,11.73-8.55,16.64-13.99l4.44,8.41Z"/>
            </g>
          </g>
          <g>
            <path class="cls-20" d="m397.99,157.56l-32.37-89.72c-1.29-3.57-5.24-5.43-8.81-4.14l-139.64,50.38c-3.57,1.29-5.43,5.24-4.14,8.81l4.15,11.5h0l28.22,78.22c1.29,3.57,5.24,5.43,8.81,4.14l139.64-50.38c3.57-1.29,5.43-5.24,4.14-8.81Z"/>
            <g>
              <g>
                <path class="cls-25" d="m225.34,80.9h148.45c3.8,0,6.88,3.08,6.88,6.88v95.38c0,3.8-3.08,6.88-6.88,6.88h-148.45c-3.8,0-6.88-3.08-6.88-6.88v-95.38c0-3.8,3.08-6.88,6.88-6.88Z" transform="translate(-28.2 109.7) rotate(-19.84)"/>
                <path class="cls-28" d="m359.68,63.09l4.15,11.5-152.59,55.05-4.15-11.5c-1.29-3.57.56-7.52,4.14-8.81l139.64-50.38c3.57-1.29,7.52.56,8.81,4.14Z"/>
                <path class="cls-17" d="m222.82,116.12c.68,1.89-.3,3.97-2.19,4.65-1.89.68-3.97-.3-4.65-2.19-.68-1.89.3-3.97,2.19-4.65,1.89-.68,3.97.3,4.65,2.19Z"/>
                <path class="cls-23" d="m233.68,112.2c.68,1.89-.3,3.97-2.19,4.65-1.89.68-3.97-.3-4.65-2.19-.68-1.89.3-3.97,2.19-4.65,1.89-.68,3.97.3,4.65,2.19Z"/>
                <path class="cls-16" d="m244.55,108.28c.68,1.89-.3,3.97-2.19,4.65-1.89.68-3.97-.3-4.65-2.19-.68-1.89.3-3.97,2.19-4.65,1.89-.68,3.97.3,4.65,2.19Z"/>
                <path class="cls-21" d="m211.24,129.64s109.41-33.69,154.82-48.86l-2.23-6.19-152.59,55.05Z"/>
              </g>
              <rect class="cls-23" x="243.72" y="134.72" width="8.29" height="66.92" transform="translate(-42.36 94.09) rotate(-19.84)"/>
              <rect class="cls-23" x="264.75" y="145.89" width="8.29" height="48.74" transform="translate(-41.82 101.35) rotate(-19.84)"/>
              <rect class="cls-17" x="285.43" y="155.12" width="8.29" height="32.55" transform="translate(-40.98 108.44) rotate(-19.84)"/>
              <rect class="cls-23" x="357.18" y="129.24" width="8.29" height="32.55" transform="translate(-27.94 131.25) rotate(-19.84)"/>
              <rect class="cls-23" x="299.28" y="125.27" width="8.29" height="56.65" transform="translate(-34.12 112.08) rotate(-19.84)"/>
              <rect class="cls-23" x="319.14" y="129.79" width="8.29" height="45.33" transform="translate(-32.55 118.75) rotate(-19.84)"/>
              <rect class="cls-17" x="334.23" y="107.07" width="8.29" height="62.07" transform="translate(-26.79 123.02) rotate(-19.84)"/>
            </g>
          </g>
          <g>
            <circle class="cls-24" cx="421.89" cy="62.99" r="17.13" transform="translate(292.49 469.45) rotate(-80.83)"/>
            <circle class="cls-24" cx="998.35" cy="663.15" r="23.2" transform="translate(3.63 1331.73) rotate(-67.5)"/>
            <circle class="cls-24" cx="1031.47" cy="595.26" r="8.57"/>
            <path class="cls-24" d="m886.86,95.35c0,3.74-3.03,6.77-6.77,6.77s-6.77-3.03-6.77-6.77,3.03-6.77,6.77-6.77,6.77,3.03,6.77,6.77Z"/>
            <path class="cls-24" d="m48.72,345.05c0,3.74-3.03,6.77-6.77,6.77s-6.77-3.03-6.77-6.77,3.03-6.77,6.77-6.77,6.77,3.03,6.77,6.77Z"/>
            <circle class="cls-24" cx="164.77" cy="69.63" r="4.97"/>
          </g>
          <polyline class="cls-9" points="913.4 105.74 931.37 118.32 939.34 97.88 957.32 110.44 965.29 90 983.27 102.57"/>
          <polyline class="cls-9" points=".25 447.11 18.22 459.68 26.19 439.24 44.17 451.81 52.14 431.37 70.12 443.94"/>
          <g>
            <polygon class="cls-23" points="177.64 598.3 151.91 583.45 151.91 613.16 177.64 598.3"/>
            <polygon class="cls-23" points="946.92 387.53 937.76 403.41 956.09 403.41 946.92 387.53"/>
          </g>
          <g>
            <circle class="cls-17" cx="930.3" cy="622.69" r="11.65" transform="translate(110.53 1385.05) rotate(-76.72)"/>
            <circle class="cls-17" cx="171.81" cy="310.11" r="5.82"/>
          </g>
          <circle class="cls-8" cx="949.28" cy="304.6" r="14.69"/>
          <circle class="cls-6" cx="171.12" cy="207.33" r="9.29" transform="translate(-76.84 311.18) rotate(-73.19)"/>
          <circle class="cls-7" cx="65.59" cy="562.72" r="14.03" transform="translate(-500.35 536.92) rotate(-80.74)"/>
        </g>
      </g>
    </g>
  </g>
</svg>